<?xml version="1.0" encoding="utf-8"?>
<!-- Generator: Adobe Illustrator 23.0.3, SVG Export Plug-In . SVG Version: 6.00 Build 0)  -->
<svg version="1.1" id="Layer_1" xmlns="http://www.w3.org/2000/svg" xmlns:xlink="http://www.w3.org/1999/xlink" x="0px" y="0px"
	 viewBox="0 0 136 47" style="enable-background:new 0 0 136 47;" xml:space="preserve">
<style type="text/css">
	.st0{fill:#0067B1;}
	.st1{fill:#407FC0;}
	.st2{fill:#7D9FD2;}
</style>
<path class="st0" d="M19.6,10.9c-0.9,0-1.4,0.5-1.4,1.4v1.2v0.9c-0.9-0.3-1.9-0.5-2.5-0.5H8.6c-0.9,0-1.4,0.5-1.4,1.4
	c0,0.9,0.5,1.4,1.4,1.4h7.1c0.6,0,1.2,0.1,1.7,0.5c0.5,0.3,0.8,0.8,0.8,1.3v0.9v0.8H6.6c-1.4,0-2.6,0.4-3.6,1.2
	c-1.1,0.9-1.7,2-1.7,3.3C1.3,26,1.8,27.1,3,28c1,0.8,2.3,1.2,3.6,1.2h9.1c0.9,0,1.4-0.5,1.4-1.4c0-0.9-0.5-1.4-1.4-1.4H6.6
	c-0.6,0-1.2-0.2-1.7-0.5c-0.5-0.4-0.8-0.8-0.8-1.3c0-0.5,0.3-0.9,0.8-1.3C5.4,23,6,22.9,6.6,22.9h11.6v5c0,0.9,0.5,1.4,1.4,1.4
	c0.9,0,1.4-0.5,1.4-1.4v-8.6v-0.9v-3v-1.9v-1.2C21.1,11.4,20.5,10.9,19.6,10.9"/>
<path class="st0" d="M36.8,17.2c0.5,0.4,0.8,0.8,0.8,1.3v6.3c0,0.5-0.2,0.9-0.8,1.3c-0.5,0.3-1,0.5-1.7,0.5h-4.6
	c-0.9,0-1.4,0.5-1.4,1.4c0,0.9,0.5,1.4,1.4,1.4h4.6c1.3,0,2.5-0.4,3.6-1.2c1.2-0.9,1.7-2,1.7-3.3v-6.3c0-1.3-0.6-2.4-1.7-3.3
	c-1-0.8-2.2-1.2-3.6-1.2H23.9c-0.9,0-1.4,0.5-1.4,1.4c0,0.9,0.5,1.4,1.4,1.4h11.2C35.7,16.7,36.3,16.8,36.8,17.2"/>
<path class="st0" d="M57.3,16.7c0.7,0,1.2,0.2,1.7,0.5c0.5,0.4,0.8,0.8,0.8,1.3v9.4c0,0.9,0.5,1.4,1.4,1.4c0.9,0,1.4-0.5,1.4-1.4
	v-9.4c0-1.3-0.6-2.4-1.7-3.3c-1-0.8-2.3-1.2-3.7-1.2h-1.4c-0.6,0-1.5,0.2-2.5,0.5c-1.5,0.5-7.8,2.7-7.8,2.7v-1.9
	c0-0.7-0.5-1.3-1.2-1.3c-0.9,0-1.4,0.5-1.4,1.4v12.5c0,0.9,0.5,1.4,1.4,1.4c0.9,0,1.4-0.5,1.4-1.4v-5.8c0-1.5,0.7-2.2,2-2.9
	c1.2-0.6,7.3-2.5,8-2.5H57.3z"/>
<path class="st0" d="M80,19.8c0.6,0,1,0.2,1.4,0.7c0.4,0.5,0.5,1,0.5,1.5v2.6c0,0.5-0.2,0.9-0.8,1.3c-0.5,0.3-1.1,0.5-1.7,0.5h-9.1
	c-0.6,0-1.2-0.2-1.7-0.5c-0.5-0.3-0.8-0.8-0.8-1.3v-4.9H80z M66.8,28c1,0.8,2.2,1.2,3.6,1.2h9.1c1.4,0,2.6-0.4,3.6-1.2
	c1.2-0.9,1.7-2,1.7-3.3v-2.6c0-1.5-0.5-2.7-1.5-3.7c0.8-0.8,1.5-2,1.5-3v-1.5c0-0.9-0.5-1.4-1.4-1.4c-0.9,0-1.4,0.5-1.4,1.4v1
	c0,0.6-0.3,1.1-0.6,1.5c-0.4,0.4-0.8,0.6-1.3,0.6H67.9v-1.8c0-0.9-0.5-1.4-1.4-1.4c-0.9,0-1.4,0.5-1.4,1.4v9.4
	C65.1,26,65.6,27.1,66.8,28"/>
<path class="st0" d="M44.3,30.2c-1.5,0-1.5,1.3-1.5,1.6v10.7C41,41.3,31.4,32.4,30.4,31.5c-1.1-0.9-1.7-1.2-2.7-1.2
	s-2.5,0.8-2.5,2.8v11.1c0,0.3,0,1.4,1.5,1.4c1.3,0,1.3-1,1.3-1.4v-9.6v-1.2c1.8,1.3,10.7,9.7,12,10.9c1.3,1.1,2.2,1.3,3.3,1.3
	c1.2,0,2.5-0.8,2.5-2.7v-11C45.7,31.5,45.7,30.2,44.3,30.2"/>
<path class="st0" d="M87.6,30.2H73h-3.2H53.3c-1.4,0-5.3,0.5-5.3,4.4c0,3.8,3.9,4.4,5.3,4.4h9.9c0.6,0,1.9,0.3,1.9,1.9
	c0,1.5-1.3,1.9-1.9,1.9H49.7c-1.6,0-1.7,1-1.7,1.4c0,0.3,0.1,1.4,1.7,1.4h13.2c2.1,0,5-0.9,5-4.6c0-3.7-3.5-4.6-5-4.6H53
	c-0.6,0-2.2-0.2-2.2-1.7c0-1.4,1.6-1.7,2.2-1.7h16.8H73h4.3v11.2c0,0.3,0,1.4,1.4,1.4c1.4,0,1.4-1,1.4-1.4V33h7.6
	c1.6,0,1.7-1,1.7-1.4C89.3,31.3,89.2,30.2,87.6,30.2"/>
<path class="st0" d="M109.1,36.3v4c0,1.5-1.2,2.5-3.6,2.5H93.4V33h12.1C107.8,33,109.1,34.2,109.1,36.3 M105.5,30.2H92.3
	c-1.3,0-1.7,0.7-1.7,1.9v12c0,1,0.4,1.4,1.7,1.4h13.2c5.2,0,6.3-3.1,6.3-4.2V35C111.8,33.9,110.7,30.2,105.5,30.2"/>
<path class="st0" d="M131.9,40.3h-15.3v-4.6c0-2,1.8-2.7,2.8-2.7h9.6c1,0,2.9,0.6,2.9,2.7V40.3z M129.5,30.2h-10.3
	c-2.5,0-5.3,1.9-5.3,4.8v9.1c0,0.3,0,1.4,1.5,1.4c1.3,0,1.3-1,1.3-1.4v-1.4h15.3v1.4c0,0.3,0,1.4,1.5,1.4c1.3,0,1.3-1,1.3-1.4V35
	C134.7,32,131.9,30.2,129.5,30.2"/>
<path class="st1" d="M90,7.1c-0.1,0.2-0.1,0.4-0.1,0.6c0,0.9,0.6,1.8,1.6,2.1c0,0,7.8,2.3,10.2,2.9V23c0,1.2,1,2.2,2.2,2.2
	s2.2-1,2.2-2.2V11.1c0-1-0.6-1.8-1.6-2.1L92.6,5.7C91.5,5.3,90.3,6,90,7.1"/>
<path class="st0" d="M90,7.1c-0.1,0.2-0.1,0.4-0.1,0.6c0,0.9,0.6,1.8,1.6,2.1c0,0,7.8,2.3,10.2,2.9V23c0,1.2,1,2.2,2.2,2.2V12.8
	c0-1,0-1.7-1.7-2.2L90,7.1z"/>
<path class="st2" d="M100.3,2.9c0,0.1-0.1,0.2-0.1,0.4c0,0.6,0.4,1.1,0.9,1.3c0,0,7,2,8.6,2.5v8.6c0,0.7,0.6,1.3,1.3,1.3
	c0.7,0,1.3-0.6,1.3-1.3V6.1c0-0.6-0.4-1.1-0.9-1.3l-9.5-2.7C101.2,1.9,100.5,2.3,100.3,2.9"/>
<path class="st1" d="M100.3,2.9c0,0.1-0.1,0.2-0.1,0.4c0,0.6,0.4,1.1,0.9,1.3c0,0,7,2,8.6,2.5v8.6c0,0.7,0.6,1.3,1.3,1.3V7
	c0-0.6,0-1-1.1-1.3L100.3,2.9z"/>
</svg>
